<svg id="SvgjsSvg1006" width="885.5625" height="436.140625" xmlns="http://www.w3.org/2000/svg" version="1.1" xmlns:xlink="http://www.w3.org/1999/xlink" xmlns:svgjs="http://svgjs.com/svgjs"><defs id="SvgjsDefs1007"><pattern id="SvgjsPattern1014" x="0" y="0" width="40" height="76" patternUnits="userSpaceOnUse"><image id="SvgjsImage1015" xlink:href="https://www.processon.com/assets/images/designer/network/iphone.svg" width="40" height="76" preserveAspectRatio="none" crossOrigin="anonymous" x="0" y="0"></image></pattern><pattern id="SvgjsPattern1020" x="0" y="0" width="36" height="80" patternUnits="userSpaceOnUse"><image id="SvgjsImage1021" xlink:href="https://www.processon.com/assets/images/designer/network/server.svg" width="36" height="80" preserveAspectRatio="none" crossOrigin="anonymous" x="0" y="0"></image></pattern><pattern id="SvgjsPattern1026" x="0" y="0" width="57" height="76" patternUnits="userSpaceOnUse"><image id="SvgjsImage1027" xlink:href="https://www.processon.com/assets/images/designer/network_azure/SQLDatabase_Generic.svg" width="57" height="76" preserveAspectRatio="none" crossOrigin="anonymous" x="0" y="0"></image></pattern><marker id="SvgjsMarker1032" markerWidth="16" markerHeight="12" refX="16" refY="6" viewBox="0 0 16 12" orient="auto" markerUnits="userSpaceOnUse" stroke-dasharray="0,0"><path id="SvgjsPath1033" d="M0,2 L14,6 L0,11 L0,2" fill="#323232" stroke="#323232" stroke-width="2"></path></marker><marker id="SvgjsMarker1060" markerWidth="16" markerHeight="12" refX="16" refY="6" viewBox="0 0 16 12" orient="auto" markerUnits="userSpaceOnUse" stroke-dasharray="0,0"><path id="SvgjsPath1061" d="M0,2 L14,6 L0,11 L0,2" fill="#323232" stroke="#323232" stroke-width="2"></path></marker><marker id="SvgjsMarker1064" markerWidth="16" markerHeight="12" refX="16" refY="6" viewBox="0 0 16 12" orient="auto" markerUnits="userSpaceOnUse" stroke-dasharray="0,0"><path id="SvgjsPath1065" d="M0,2 L14,6 L0,11 L0,2" fill="#323232" stroke="#323232" stroke-width="2"></path></marker><marker id="SvgjsMarker1068" markerWidth="16" markerHeight="12" refX="16" refY="6" viewBox="0 0 16 12" orient="auto" markerUnits="userSpaceOnUse" stroke-dasharray="0,0"><path id="SvgjsPath1069" d="M0,2 L14,6 L0,11 L0,2" fill="#323232" stroke="#323232" stroke-width="2"></path></marker><marker id="SvgjsMarker1078" markerWidth="16" markerHeight="12" refX="16" refY="6" viewBox="0 0 16 12" orient="auto" markerUnits="userSpaceOnUse" stroke-dasharray="0,0"><path id="SvgjsPath1079" d="M0,2 L14,6 L0,11 L0,2" fill="#323232" stroke="#323232" stroke-width="2"></path></marker><marker id="SvgjsMarker1082" markerWidth="16" markerHeight="12" refX="16" refY="6" viewBox="0 0 16 12" orient="auto" markerUnits="userSpaceOnUse" stroke-dasharray="0,0"><path id="SvgjsPath1083" d="M0,2 L14,6 L0,11 L0,2" fill="#323232" stroke="#323232" stroke-width="2"></path></marker><marker id="SvgjsMarker1086" markerWidth="16" markerHeight="12" refX="16" refY="6" viewBox="0 0 16 12" orient="auto" markerUnits="userSpaceOnUse" stroke-dasharray="0,0"><path id="SvgjsPath1087" d="M0,2 L14,6 L0,11 L0,2" fill="#323232" stroke="#323232" stroke-width="2"></path></marker><marker id="SvgjsMarker1090" markerWidth="16" markerHeight="12" refX="16" refY="6" viewBox="0 0 16 12" orient="auto" markerUnits="userSpaceOnUse" stroke-dasharray="0,0"><path id="SvgjsPath1091" d="M0,2 L14,6 L0,11 L0,2" fill="#323232" stroke="#323232" stroke-width="2"></path></marker><marker id="SvgjsMarker1134" markerWidth="16" markerHeight="12" refX="16" refY="6" viewBox="0 0 16 12" orient="auto" markerUnits="userSpaceOnUse" stroke-dasharray="0,0"><path id="SvgjsPath1135" d="M0,2 L14,6 L0,11 L0,2" fill="#323232" stroke="#323232" stroke-width="2"></path></marker><marker id="SvgjsMarker1148" markerWidth="16" markerHeight="12" refX="16" refY="6" viewBox="0 0 16 12" orient="auto" markerUnits="userSpaceOnUse" stroke-dasharray="0,0"><path id="SvgjsPath1149" d="M0,2 L14,6 L0,11 L0,2" fill="#323232" stroke="#323232" stroke-width="2"></path></marker><marker id="SvgjsMarker1152" markerWidth="16" markerHeight="12" refX="16" refY="6" viewBox="0 0 16 12" orient="auto" markerUnits="userSpaceOnUse" stroke-dasharray="0,0"><path id="SvgjsPath1153" d="M0,2 L14,6 L0,11 L0,2" fill="#323232" stroke="#323232" stroke-width="2"></path></marker><marker id="SvgjsMarker1156" markerWidth="16" markerHeight="12" refX="16" refY="6" viewBox="0 0 16 12" orient="auto" markerUnits="userSpaceOnUse" stroke-dasharray="0,0"><path id="SvgjsPath1157" d="M0,2 L14,6 L0,11 L0,2" fill="#323232" stroke="#323232" stroke-width="2"></path></marker></defs><g id="SvgjsG1008" transform="translate(68.0625,206.546875)"><path id="SvgjsPath1009" d="M 0 9.9L 68 9.9L 68 0L 83 15L 68 30L 68 20.1L 0 20.1L 0 9.9Z" stroke="rgba(50,50,50,1)" stroke-width="2" fill-opacity="1" fill="#ffffff"></path><g id="SvgjsG1010"><text id="SvgjsText1011" font-family="微软雅黑" text-anchor="middle" font-size="13px" width="83px" fill="#323232" font-weight="400" align="middle" lineHeight="125%" anchor="middle" family="微软雅黑" size="13px" weight="400" font-style="" opacity="1" y="5.375000000000001" transform="rotate(0)"></text></g></g><g id="SvgjsG1012" transform="translate(25.00250244140625,183.546875)"><path id="SvgjsPath1013" d="M 0 0L 40 0L 40 76L 0 76Z" stroke="none" fill="url(#SvgjsPattern1014)"></path><g id="SvgjsG1016"><text id="SvgjsText1017" font-family="微软雅黑" text-anchor="middle" font-size="13px" width="80px" fill="#323232" font-weight="400" align="middle" lineHeight="125%" anchor="middle" family="微软雅黑" size="13px" weight="400" font-style="" opacity="1" y="81.375" transform="rotate(0)"></text></g></g><g id="SvgjsG1018" transform="translate(156.5625,181.546875)"><path id="SvgjsPath1019" d="M 0 0L 36 0L 36 80L 0 80Z" stroke="none" fill="url(#SvgjsPattern1020)"></path><g id="SvgjsG1022"><text id="SvgjsText1023" font-family="微软雅黑" text-anchor="middle" font-size="13px" width="76px" fill="#323232" font-weight="400" align="middle" lineHeight="125%" anchor="middle" family="微软雅黑" size="13px" weight="400" font-style="" opacity="1" y="85.375" transform="rotate(0)"></text></g></g><g id="SvgjsG1024" transform="translate(146.0625,60.98687744140625)"><path id="SvgjsPath1025" d="M 0 0L 57 0L 57 76L 0 76Z" stroke="none" fill="url(#SvgjsPattern1026)"></path><g id="SvgjsG1028"><text id="SvgjsText1029" font-family="微软雅黑" text-anchor="middle" font-size="13px" width="97px" fill="#323232" font-weight="400" align="middle" lineHeight="125%" anchor="middle" family="微软雅黑" size="13px" weight="400" font-style="" opacity="1" y="81.375" transform="rotate(0)"></text></g></g><g id="SvgjsG1030"><path id="SvgjsPath1031" d="M192.5625 221.546875L219.28250122070312 221.546875L219.28250122070312 221.546875L246.00250244140625 221.546875" stroke="#323232" stroke-width="2" fill="none" marker-end="url(#SvgjsMarker1032)"></path></g><g id="SvgjsG1034" transform="translate(468.0625,139.98687744140625)"><path id="SvgjsPath1035" d="M 0 4Q 0 0 4 0L 117 0Q 121 0 121 4L 121 26Q 121 30 117 30L 4 30Q 0 30 0 26Z" stroke="rgba(50,50,50,1)" stroke-width="2" fill-opacity="1" fill="#ffffff"></path><g id="SvgjsG1036"><text id="SvgjsText1037" font-family="微软雅黑" text-anchor="middle" font-size="13px" width="101px" fill="#323232" font-weight="400" align="middle" lineHeight="125%" anchor="middle" family="微软雅黑" size="13px" weight="400" font-style="" opacity="1" y="5.375" transform="rotate(0)"><tspan id="SvgjsTspan1038" dy="16" x="60.5"><tspan id="SvgjsTspan1039" style="text-decoration:;">成虫</tspan></tspan></text></g></g><g id="SvgjsG1040" transform="translate(468.0625,204.046875)"><path id="SvgjsPath1041" d="M 0 4Q 0 0 4 0L 117 0Q 121 0 121 4L 121 26Q 121 30 117 30L 4 30Q 0 30 0 26Z" stroke="rgba(50,50,50,1)" stroke-width="2" fill-opacity="1" fill="#ffffff"></path><g id="SvgjsG1042"><text id="SvgjsText1043" font-family="微软雅黑" text-anchor="middle" font-size="13px" width="101px" fill="#323232" font-weight="400" align="middle" lineHeight="125%" anchor="middle" family="微软雅黑" size="13px" weight="400" font-style="" opacity="1" y="5.375" transform="rotate(0)"><tspan id="SvgjsTspan1044" dy="16" x="60.5"><tspan id="SvgjsTspan1045" style="text-decoration:;">幼虫</tspan></tspan></text></g></g><g id="SvgjsG1046" transform="translate(471.0625,263.98687744140625)"><path id="SvgjsPath1047" d="M 0 4Q 0 0 4 0L 117 0Q 121 0 121 4L 121 26Q 121 30 117 30L 4 30Q 0 30 0 26Z" stroke="rgba(50,50,50,1)" stroke-width="2" fill-opacity="1" fill="#ffffff"></path><g id="SvgjsG1048"><text id="SvgjsText1049" font-family="微软雅黑" text-anchor="middle" font-size="13px" width="101px" fill="#323232" font-weight="400" align="middle" lineHeight="125%" anchor="middle" family="微软雅黑" size="13px" weight="400" font-style="" opacity="1" y="5.375" transform="rotate(0)"><tspan id="SvgjsTspan1050" dy="16" x="60.5"><tspan id="SvgjsTspan1051" style="text-decoration:;">卵</tspan></tspan></text></g></g><g id="SvgjsG1052" transform="translate(246.00250244140625,181.546875)"><path id="SvgjsPath1053" d="M 0 40L 60.5 0L 121 40L 60.5 80Z" stroke="rgba(50,50,50,1)" stroke-width="2" fill-opacity="1" fill="#ffffff"></path><g id="SvgjsG1054"><text id="SvgjsText1055" font-family="微软雅黑" text-anchor="middle" font-size="13px" width="101px" fill="#323232" font-weight="400" align="middle" lineHeight="125%" anchor="middle" family="微软雅黑" size="13px" weight="400" font-style="" opacity="1" y="30.775" transform="rotate(0)"><tspan id="SvgjsTspan1056" dy="16" x="60.5"><tspan id="SvgjsTspan1057" style="text-decoration:;">ResNet101</tspan></tspan></text></g></g><g id="SvgjsG1058"><path id="SvgjsPath1059" d="M367.00250244140625 221.546875L417.5325012207031 221.546875L417.5325012207031 154.98687744140625L468.0625 154.98687744140625" stroke="#323232" stroke-width="2" fill="none" marker-end="url(#SvgjsMarker1060)"></path></g><g id="SvgjsG1062"><path id="SvgjsPath1063" d="M367.00250244140625 221.546875L417.5325012207031 221.546875L417.5325012207031 219.046875L468.0625 219.046875" stroke="#323232" stroke-width="2" fill="none" marker-end="url(#SvgjsMarker1064)"></path></g><g id="SvgjsG1066"><path id="SvgjsPath1067" d="M367.00250244140625 221.546875L418.00250244140625 221.546875L418.00250244140625 279.7668762207031L469.00250244140625 279.7668762207031" stroke="#323232" stroke-width="2" fill="none" marker-end="url(#SvgjsMarker1068)"></path></g><g id="SvgjsG1070" transform="translate(739.5625,198.546875)"><path id="SvgjsPath1071" d="M 0 0L 121 0L 121 41L 0 41Z" stroke="rgba(50,50,50,1)" stroke-width="2" fill-opacity="1" fill="#ffffff"></path><g id="SvgjsG1072"><text id="SvgjsText1073" font-family="微软雅黑" text-anchor="middle" font-size="13px" width="101px" fill="#323232" font-weight="400" align="middle" lineHeight="125%" anchor="middle" family="微软雅黑" size="13px" weight="400" font-style="" opacity="1" y="10.875" transform="rotate(0)"><tspan id="SvgjsTspan1074" dy="16" x="60.5"><tspan id="SvgjsTspan1075" style="text-decoration:;">insect code</tspan></tspan></text></g></g><g id="SvgjsG1076"><path id="SvgjsPath1077" d="M589.0625 154.98687744140625L664.3125 154.98687744140625L664.3125 219.046875L739.5625 219.046875" stroke="#323232" stroke-width="2" fill="none" marker-end="url(#SvgjsMarker1078)"></path></g><g id="SvgjsG1080"><path id="SvgjsPath1081" d="M589.0625 219.046875L664.3125 219.046875L664.3125 219.046875L739.5625 219.046875" stroke="#323232" stroke-width="2" fill="none" marker-end="url(#SvgjsMarker1082)"></path></g><g id="SvgjsG1084"><path id="SvgjsPath1085" d="M592.0625 278.98687744140625L665.8125 278.98687744140625L665.8125 219.046875L739.5625 219.046875" stroke="#323232" stroke-width="2" fill="none" marker-end="url(#SvgjsMarker1086)"></path></g><g id="SvgjsG1088"><path id="SvgjsPath1089" d="M174.5625 136.98687744140625L174.5625 159.98687744140625L174.5625 159.98687744140625L174.5625 181.546875" stroke="#323232" stroke-width="2" fill="none" marker-end="url(#SvgjsMarker1090)"></path></g><g id="SvgjsG1092" transform="translate(68.0625,225.98687744140625)"><path id="SvgjsPath1093" d="M 0 15L 15 0L 15 9.9L 83 9.9L 83 20.1L 15 20.1L 15 30L 0 15Z" stroke="rgba(50,50,50,1)" stroke-width="2" fill-opacity="1" fill="#ffffff"></path><g id="SvgjsG1094"><text id="SvgjsText1095" font-family="微软雅黑" text-anchor="middle" font-size="13px" width="83px" fill="#323232" font-weight="400" align="middle" lineHeight="125%" anchor="middle" family="微软雅黑" size="13px" weight="400" font-style="" opacity="1" y="5.375000000000001" transform="rotate(0)"></text></g></g><g id="SvgjsG1096" transform="translate(49.0625,173.046875)"><path id="SvgjsPath1097" d="M 0 0L 121 0L 121 41L 0 41Z" stroke="none" fill="none"></path><g id="SvgjsG1098"><text id="SvgjsText1099" font-family="微软雅黑" text-anchor="middle" font-size="13px" width="121px" fill="#323232" font-weight="400" align="middle" lineHeight="125%" anchor="middle" family="微软雅黑" size="13px" weight="400" font-style="" opacity="1" y="10.875" transform="rotate(0)"><tspan id="SvgjsTspan1100" dy="16" x="60.5"><tspan id="SvgjsTspan1101" style="text-decoration:;">Image</tspan></tspan></text></g></g><g id="SvgjsG1102" transform="translate(49.0625,237.046875)"><path id="SvgjsPath1103" d="M 0 0L 121 0L 121 41L 0 41Z" stroke="none" fill="none"></path><g id="SvgjsG1104"><text id="SvgjsText1105" font-family="微软雅黑" text-anchor="middle" font-size="13px" width="121px" fill="#323232" font-weight="400" align="middle" lineHeight="125%" anchor="middle" family="微软雅黑" size="13px" weight="400" font-style="" opacity="1" y="10.875" transform="rotate(0)"><tspan id="SvgjsTspan1106" dy="16" x="60.5"><tspan id="SvgjsTspan1107" style="text-decoration:;">Info</tspan></tspan></text></g></g><g id="SvgjsG1108" transform="translate(156.00250244140625,185.98687744140625)"><path id="SvgjsPath1109" d="M 0 0L 121 0L 121 41L 0 41Z" stroke="none" fill="none"></path><g id="SvgjsG1110"><text id="SvgjsText1111" font-family="微软雅黑" text-anchor="middle" font-size="13px" width="121px" fill="#323232" font-weight="400" align="middle" lineHeight="125%" anchor="middle" family="微软雅黑" size="13px" weight="400" font-style="" opacity="1" y="10.875" transform="rotate(0)"><tspan id="SvgjsTspan1112" dy="16" x="60.5"><tspan id="SvgjsTspan1113" style="text-decoration:;">predict</tspan></tspan></text></g></g><g id="SvgjsG1114" transform="translate(448.5625,103.98687744140625)"><path id="SvgjsPath1115" d="M 0 0L 160 0L 160 36L 0 36Z" stroke="none" fill="none"></path><g id="SvgjsG1116"><text id="SvgjsText1117" font-family="微软雅黑" text-anchor="middle" font-size="13px" width="160px" fill="#323232" font-weight="400" align="middle" lineHeight="125%" anchor="middle" family="微软雅黑" size="13px" weight="400" font-style="" opacity="1" y="8.375" transform="rotate(0)"><tspan id="SvgjsTspan1118" dy="16" x="80"><tspan id="SvgjsTspan1119" style="text-decoration:;">Big Transfer Network</tspan></tspan></text></g></g><g id="SvgjsG1120" transform="translate(451.5625,175.546875)"><path id="SvgjsPath1121" d="M 0 0L 160 0L 160 36L 0 36Z" stroke="none" fill="none"></path><g id="SvgjsG1122"><text id="SvgjsText1123" font-family="微软雅黑" text-anchor="middle" font-size="13px" width="160px" fill="#323232" font-weight="400" align="middle" lineHeight="125%" anchor="middle" family="微软雅黑" size="13px" weight="400" font-style="" opacity="1" y="8.375" transform="rotate(0)"><tspan id="SvgjsTspan1124" dy="16" x="80"><tspan id="SvgjsTspan1125" style="text-decoration:;">Big Transfer Network</tspan></tspan></text></g></g><g id="SvgjsG1126" transform="translate(457.5625,234.046875)"><path id="SvgjsPath1127" d="M 0 0L 160 0L 160 36L 0 36Z" stroke="none" fill="none"></path><g id="SvgjsG1128"><text id="SvgjsText1129" font-family="微软雅黑" text-anchor="middle" font-size="13px" width="160px" fill="#323232" font-weight="400" align="middle" lineHeight="125%" anchor="middle" family="微软雅黑" size="13px" weight="400" font-style="" opacity="1" y="8.375" transform="rotate(0)"><tspan id="SvgjsTspan1130" dy="16" x="80"><tspan id="SvgjsTspan1131" style="text-decoration:;">Big Transfer Network</tspan></tspan></text></g></g><g id="SvgjsG1132"><path id="SvgjsPath1133" d="M800.0625 198.546875L800.0625 30.98687744140625L174.5625 30.98687744140625L174.5625 60.98687744140625" stroke="#323232" stroke-width="2" fill="none" marker-end="url(#SvgjsMarker1134)"></path><rect id="SvgjsRect1136" width="68" height="16" x="522.0924987792969" y="22.98687744140625" fill="#ffffff"></rect><text id="SvgjsText1137" font-family="微软雅黑" text-anchor="middle" font-size="13px" width="68px" fill="#323232" font-weight="400" align="top" lineHeight="16px" anchor="middle" family="微软雅黑" size="13px" weight="400" font-style="" opacity="1" y="21.36187744140625" transform="rotate(0)"><tspan id="SvgjsTspan1138" dy="16" x="556.0924987792969"><tspan id="SvgjsTspan1139" style="text-decoration:;">code string</tspan></tspan></text></g><g id="SvgjsG1140" transform="translate(388.00250244140625,337.546875)"><path id="SvgjsPath1141" d="M 0 4Q 0 0 4 0L 133.55999755859375 0Q 137.55999755859375 0 137.55999755859375 4L 137.55999755859375 40Q 137.55999755859375 44 133.55999755859375 44L 4 44Q 0 44 0 40Z" stroke="rgba(50,50,50,1)" stroke-width="2" fill-opacity="1" fill="#ffffff"></path><g id="SvgjsG1142"><text id="SvgjsText1143" font-family="微软雅黑" text-anchor="middle" font-size="13px" width="118px" fill="#323232" font-weight="400" align="middle" lineHeight="125%" anchor="middle" family="微软雅黑" size="13px" weight="400" font-style="" opacity="1" y="12.375" transform="rotate(0)"><tspan id="SvgjsTspan1144" dy="16" x="69"><tspan id="SvgjsTspan1145" style="text-decoration:;">yolov5s</tspan></tspan></text></g></g><g id="SvgjsG1146"><path id="SvgjsPath1147" d="M525.5625 359.546875L632.5625 359.546875L632.5625 219.046875L739.5625 219.046875" stroke="#323232" stroke-width="2" fill="none" marker-end="url(#SvgjsMarker1148)"></path></g><g id="SvgjsG1150"><path id="SvgjsPath1151" d="M170.0625 257.546875L232.03250122070312 257.546875L232.03250122070312 359.546875L388.00250244140625 359.546875" stroke="#323232" stroke-width="2" fill="none" marker-end="url(#SvgjsMarker1152)"></path></g><g id="SvgjsG1154"><path id="SvgjsPath1155" d="M456.7825012207031 381.546875L456.7825012207031 411.546875L174.5625 411.546875L174.5625 261.546875" stroke="#323232" stroke-width="2" fill="none" marker-end="url(#SvgjsMarker1156)"></path><rect id="SvgjsRect1158" width="37" height="16" x="237.17250061035156" y="403.546875" fill="#ffffff"></rect><text id="SvgjsText1159" font-family="微软雅黑" text-anchor="middle" font-size="13px" width="37px" fill="#323232" font-weight="400" align="top" lineHeight="16px" anchor="middle" family="微软雅黑" size="13px" weight="400" font-style="" opacity="1" y="401.921875" transform="rotate(0)"><tspan id="SvgjsTspan1160" dy="16" x="255.67250061035156"><tspan id="SvgjsTspan1161" style="text-decoration:;">image</tspan></tspan></text></g></svg>