<svg id="SvgjsSvg1006" width="1002" height="582" xmlns="http://www.w3.org/2000/svg" version="1.1" xmlns:xlink="http://www.w3.org/1999/xlink" xmlns:svgjs="http://svgjs.com/svgjs"><defs id="SvgjsDefs1007"><marker id="SvgjsMarker1049" markerWidth="16" markerHeight="12" refX="16" refY="6" viewBox="0 0 16 12" orient="auto" markerUnits="userSpaceOnUse" stroke-dasharray="0,0"><path id="SvgjsPath1050" d="M0,2 L14,6 L0,11 L0,2" fill="#323232" stroke="#323232" stroke-width="2"></path></marker><marker id="SvgjsMarker1057" markerWidth="16" markerHeight="12" refX="16" refY="6" viewBox="0 0 16 12" orient="auto" markerUnits="userSpaceOnUse" stroke-dasharray="0,0"><path id="SvgjsPath1058" d="M0,2 L14,6 L0,11 L0,2" fill="#323232" stroke="#323232" stroke-width="2"></path></marker><marker id="SvgjsMarker1065" markerWidth="16" markerHeight="12" refX="16" refY="6" viewBox="0 0 16 12" orient="auto" markerUnits="userSpaceOnUse" stroke-dasharray="0,0"><path id="SvgjsPath1066" d="M0,2 L14,6 L0,11 L0,2" fill="#323232" stroke="#323232" stroke-width="2"></path></marker><marker id="SvgjsMarker1073" markerWidth="16" markerHeight="12" refX="16" refY="6" viewBox="0 0 16 12" orient="auto" markerUnits="userSpaceOnUse" stroke-dasharray="0,0"><path id="SvgjsPath1074" d="M0,2 L14,6 L0,11 L0,2" fill="#323232" stroke="#323232" stroke-width="2"></path></marker><marker id="SvgjsMarker1081" markerWidth="16" markerHeight="12" refX="16" refY="6" viewBox="0 0 16 12" orient="auto" markerUnits="userSpaceOnUse" stroke-dasharray="0,0"><path id="SvgjsPath1082" d="M0,2 L14,6 L0,11 L0,2" fill="#323232" stroke="#323232" stroke-width="2"></path></marker><marker id="SvgjsMarker1100" markerWidth="16" markerHeight="12" refX="16" refY="6" viewBox="0 0 16 12" orient="auto" markerUnits="userSpaceOnUse" stroke-dasharray="0,0"><path id="SvgjsPath1101" d="M0,2 L14,6 L0,11 L0,2" fill="#323232" stroke="#323232" stroke-width="2"></path></marker><marker id="SvgjsMarker1108" markerWidth="16" markerHeight="12" refX="16" refY="6" viewBox="0 0 16 12" orient="auto" markerUnits="userSpaceOnUse" stroke-dasharray="0,0"><path id="SvgjsPath1109" d="M0,2 L14,6 L0,11 L0,2" fill="#323232" stroke="#323232" stroke-width="2"></path></marker></defs><g id="SvgjsG1008" transform="translate(25,25)"><path id="SvgjsPath1009" d="M 0 0L 952 0L 952 532L 0 532Z" stroke="rgba(50,50,50,1)" stroke-width="2" fill-opacity="1" fill="#ffffff"></path><g id="SvgjsG1010"><text id="SvgjsText1011" font-family="微软雅黑" text-anchor="middle" font-size="13px" width="932px" fill="#323232" font-weight="700" align="middle" lineHeight="125%" anchor="middle" family="微软雅黑" size="13px" weight="700" font-style="" opacity="1" y="256.375" transform="rotate(0)"></text></g></g><g id="SvgjsG1012" transform="translate(52,98)"><path id="SvgjsPath1013" d="M 70 30L 70 424" stroke-dasharray="3,4" stroke="rgba(50,50,50,1)" stroke-width="2" fill="none"></path><path id="SvgjsPath1014" d="M 0 0L 140 0L 140 30L 0 30Z" stroke="rgba(50,50,50,1)" stroke-width="2" fill-opacity="1" fill="#99ccff"></path><g id="SvgjsG1015"><text id="SvgjsText1016" font-family="微软雅黑" text-anchor="middle" font-size="13px" width="120px" fill="#323232" font-weight="700" align="middle" lineHeight="125%" anchor="middle" family="微软雅黑" size="13px" weight="700" font-style="" opacity="1" y="5.375" transform="rotate(0)"><tspan id="SvgjsTspan1017" dy="16" x="70"><tspan id="SvgjsTspan1018" style="text-decoration:;">访问网站</tspan></tspan></text></g></g><g id="SvgjsG1019" transform="translate(253,98)"><path id="SvgjsPath1020" d="M 62 30L 62 424" stroke-dasharray="3,4" stroke="rgba(50,50,50,1)" stroke-width="2" fill="none"></path><path id="SvgjsPath1021" d="M 0 0L 124 0L 124 30L 0 30Z" stroke="rgba(50,50,50,1)" stroke-width="2" fill-opacity="1" fill="#ff66b3"></path><g id="SvgjsG1022"><text id="SvgjsText1023" font-family="微软雅黑" text-anchor="middle" font-size="13px" width="104px" fill="#323232" font-weight="700" align="middle" lineHeight="125%" anchor="middle" family="微软雅黑" size="13px" weight="700" font-style="" opacity="1" y="5.375" transform="rotate(0)"><tspan id="SvgjsTspan1024" dy="16" x="62"><tspan id="SvgjsTspan1025" style="text-decoration:;">Flask服务器</tspan></tspan></text></g></g><g id="SvgjsG1026" transform="translate(611.5,98)"><path id="SvgjsPath1027" d="M 64.5 30L 64.5 424" stroke-dasharray="3,4" stroke="rgba(50,50,50,1)" stroke-width="2" fill="none"></path><path id="SvgjsPath1028" d="M 0 0L 129 0L 129 30L 0 30Z" stroke="rgba(50,50,50,1)" stroke-width="2" fill-opacity="1" fill="#b3ff66"></path><g id="SvgjsG1029"><text id="SvgjsText1030" font-family="微软雅黑" text-anchor="middle" font-size="13px" width="109px" fill="#323232" font-weight="700" align="middle" lineHeight="125%" anchor="middle" family="微软雅黑" size="13px" weight="700" font-style="" opacity="1" y="5.375" transform="rotate(0)"><tspan id="SvgjsTspan1031" dy="16" x="64.5"><tspan id="SvgjsTspan1032" style="text-decoration:;">算法API</tspan></tspan></text></g></g><g id="SvgjsG1033" transform="translate(439,98)"><path id="SvgjsPath1034" d="M 62 30L 62 424" stroke-dasharray="3,4" stroke="rgba(50,50,50,1)" stroke-width="2" fill="none"></path><path id="SvgjsPath1035" d="M 0 0L 124 0L 124 30L 0 30Z" stroke="rgba(50,50,50,1)" stroke-width="2" fill-opacity="1" fill="#ffb366"></path><g id="SvgjsG1036"><text id="SvgjsText1037" font-family="微软雅黑" text-anchor="middle" font-size="13px" width="104px" fill="#323232" font-weight="700" align="middle" lineHeight="125%" anchor="middle" family="微软雅黑" size="13px" weight="700" font-style="" opacity="1" y="5.375" transform="rotate(0)"><tspan id="SvgjsTspan1038" dy="16" x="62"><tspan id="SvgjsTspan1039" style="text-decoration:;">数据处理</tspan></tspan></text></g></g><g id="SvgjsG1040" transform="translate(802,98)"><path id="SvgjsPath1041" d="M 76 30L 76 424" stroke-dasharray="3,4" stroke="rgba(50,50,50,1)" stroke-width="2" fill="none"></path><path id="SvgjsPath1042" d="M 0 0L 152 0L 152 30L 0 30Z" stroke="rgba(50,50,50,1)" stroke-width="2" fill-opacity="1" fill="#00ffff"></path><g id="SvgjsG1043"><text id="SvgjsText1044" font-family="微软雅黑" text-anchor="middle" font-size="12px" width="132px" fill="#000000" font-weight="700" align="middle" lineHeight="125%" anchor="middle" family="微软雅黑" size="12px" weight="700" font-style="" opacity="1" y="6" transform="rotate(0)"><tspan id="SvgjsTspan1045" dy="15" x="76"><tspan id="SvgjsTspan1046" style="text-decoration:;">数据库服务器</tspan></tspan></text></g></g><g id="SvgjsG1047"><path id="SvgjsPath1048" d="M121 177L217 177L217 177L313 177" stroke="#323232" stroke-width="2" fill="none" marker-end="url(#SvgjsMarker1049)"></path><rect id="SvgjsRect1051" width="109" height="16" x="162.5" y="169" fill="#ffffff"></rect><text id="SvgjsText1052" font-family="微软雅黑" text-anchor="middle" font-size="13px" width="109px" fill="#323232" font-weight="700" align="top" lineHeight="16px" anchor="middle" family="微软雅黑" size="13px" weight="700" font-style="" opacity="1" y="167.375" transform="rotate(0)"><tspan id="SvgjsTspan1053" dy="16" x="217"><tspan id="SvgjsTspan1054" style="text-decoration:;">1、图片及模式选择</tspan></tspan></text></g><g id="SvgjsG1055"><path id="SvgjsPath1056" d="M314 197L405 197L405 197L496 197" stroke="#323232" stroke-width="2" fill="none" marker-end="url(#SvgjsMarker1057)"></path><rect id="SvgjsRect1059" width="86" height="16" x="362" y="189" fill="#ffffff"></rect><text id="SvgjsText1060" font-family="微软雅黑" text-anchor="middle" font-size="13px" width="86px" fill="#323232" font-weight="700" align="top" lineHeight="16px" anchor="middle" family="微软雅黑" size="13px" weight="700" font-style="" opacity="1" y="187.375" transform="rotate(0)"><tspan id="SvgjsTspan1061" dy="16" x="405"><tspan id="SvgjsTspan1062" style="text-decoration:;">2、数据预处理</tspan></tspan></text></g><g id="SvgjsG1063"><path id="SvgjsPath1064" d="M500 249L586.5 249L586.5 249L673 249" stroke="#323232" stroke-width="2" fill="none" marker-end="url(#SvgjsMarker1065)"></path><rect id="SvgjsRect1067" width="99" height="16" x="537" y="241" fill="#ffffff"></rect><text id="SvgjsText1068" font-family="微软雅黑" text-anchor="middle" font-size="13px" width="99px" fill="#323232" font-weight="700" align="top" lineHeight="16px" anchor="middle" family="微软雅黑" size="13px" weight="700" font-style="" opacity="1" y="239.375" transform="rotate(0)"><tspan id="SvgjsTspan1069" dy="16" x="586.5"><tspan id="SvgjsTspan1070" style="text-decoration:;">3、网络模型调用</tspan></tspan></text></g><g id="SvgjsG1071"><path id="SvgjsPath1072" d="M876 341L690 341L690 341L504 341" stroke="#323232" stroke-width="2" fill="none" marker-end="url(#SvgjsMarker1073)"></path><rect id="SvgjsRect1075" width="99" height="16" x="659.0999999999999" y="333" fill="#ffffff"></rect><text id="SvgjsText1076" font-family="微软雅黑" text-anchor="middle" font-size="13px" width="99px" fill="#323232" font-weight="700" align="top" lineHeight="16px" anchor="middle" family="微软雅黑" size="13px" weight="700" font-style="" opacity="1" y="331.375" transform="rotate(0)"><tspan id="SvgjsTspan1077" dy="16" x="708.5999999999999"><tspan id="SvgjsTspan1078" style="text-decoration:;">5、返回结果信息</tspan></tspan></text></g><g id="SvgjsG1079"><path id="SvgjsPath1080" d="M502 379L410.5 379L410.5 379L319 379" stroke="#323232" stroke-width="2" fill="none" marker-end="url(#SvgjsMarker1081)"></path><rect id="SvgjsRect1083" width="67" height="16" x="362.5" y="371" fill="#ffffff"></rect><text id="SvgjsText1084" font-family="微软雅黑" text-anchor="middle" font-size="13px" width="67px" fill="#323232" font-weight="700" align="top" lineHeight="16px" anchor="middle" family="微软雅黑" size="13px" weight="700" font-style="" opacity="1" y="369.375" transform="rotate(0)"><tspan id="SvgjsTspan1085" dy="16" x="396"><tspan id="SvgjsTspan1086" style="text-decoration:;">6. 发送json</tspan></tspan></text></g><g id="SvgjsG1087" transform="translate(25,25)"><path id="SvgjsPath1088" d="M 0 0L 952 0L 952 38L 0 38Z" stroke="rgba(50,50,50,1)" stroke-width="2" fill-opacity="1" fill="#ffffff"></path><g id="SvgjsG1089"><text id="SvgjsText1090" font-family="微软雅黑" text-anchor="middle" font-size="14px" width="932px" fill="#323232" font-weight="700" align="middle" lineHeight="125%" anchor="middle" family="微软雅黑" size="14px" weight="700" font-style="" opacity="1" y="8.75" transform="rotate(0)"><tspan id="SvgjsTspan1091" dy="17" x="476"><tspan id="SvgjsTspan1092" style="text-decoration:;">林业害虫识别用户操作时序图</tspan></tspan></text></g></g><g id="SvgjsG1093" transform="translate(30,238)"><path id="SvgjsPath1094" d="M 23.333333333333332 12.5C 23.333333333333332 -4.166666666666666 46.666666666666664 -4.166666666666666 46.666666666666664 12.5C 46.666666666666664 29.166666666666668 23.333333333333332 29.166666666666668 23.333333333333332 12.5M 35 25L 35 75M 35 75L 5.833333333333333 100M 35 75L 64.16666666666666 100M 0 50L 70 50" stroke="rgba(50,50,50,1)" stroke-width="2" fill-opacity="1" fill="#ffffff"></path><path id="SvgjsPath1095" d="M 0 0L 70 0L 70 100L 0 100Z" stroke="none" fill="none"></path><g id="SvgjsG1096"><text id="SvgjsText1097" font-family="微软雅黑" text-anchor="middle" font-size="13px" width="110px" fill="#323232" font-weight="400" align="middle" lineHeight="125%" anchor="middle" family="微软雅黑" size="13px" weight="400" font-style="" opacity="1" y="105.375" transform="rotate(0)"></text></g></g><g id="SvgjsG1098"><path id="SvgjsPath1099" d="M674 294L773 294L773 294L872 294" stroke="#323232" stroke-width="2" fill="none" marker-end="url(#SvgjsMarker1100)"></path><rect id="SvgjsRect1102" width="99" height="16" x="723.5" y="286" fill="#ffffff"></rect><text id="SvgjsText1103" font-family="微软雅黑" text-anchor="middle" font-size="13px" width="99px" fill="#323232" font-weight="700" align="top" lineHeight="16px" anchor="middle" family="微软雅黑" size="13px" weight="700" font-style="" opacity="1" y="284.375" transform="rotate(0)"><tspan id="SvgjsTspan1104" dy="16" x="773"><tspan id="SvgjsTspan1105" style="text-decoration:;">4、详细信息查询</tspan></tspan></text></g><g id="SvgjsG1106"><path id="SvgjsPath1107" d="M316 422L221.5 422L221.5 422L127 422" stroke="#323232" stroke-width="2" fill="none" marker-end="url(#SvgjsMarker1108)"></path><rect id="SvgjsRect1110" width="67" height="16" x="188" y="414" fill="#ffffff"></rect><text id="SvgjsText1111" font-family="微软雅黑" text-anchor="middle" font-size="13px" width="67px" fill="#323232" font-weight="700" align="top" lineHeight="16px" anchor="middle" family="微软雅黑" size="13px" weight="700" font-style="" opacity="1" y="412.375" transform="rotate(0)"><tspan id="SvgjsTspan1112" dy="16" x="221.5"><tspan id="SvgjsTspan1113" style="text-decoration:;">7. 前端显示</tspan></tspan></text></g></svg>