<svg id="SvgjsSvg1288" width="1216" height="579.75" xmlns="http://www.w3.org/2000/svg" version="1.1" xmlns:xlink="http://www.w3.org/1999/xlink" xmlns:svgjs="http://svgjs.com/svgjs"><defs id="SvgjsDefs1289"><marker id="SvgjsMarker1446" markerWidth="16" markerHeight="12" refX="16" refY="6" viewBox="0 0 16 12" orient="auto" markerUnits="userSpaceOnUse" stroke-dasharray="0,0"><path id="SvgjsPath1447" d="M0,2 L14,6 L0,11 L0,2" fill="#323232" stroke="#323232" stroke-width="2"></path></marker><marker id="SvgjsMarker1542" markerWidth="16" markerHeight="16" refX="11" refY="8" viewBox="0 0 16 16" orient="auto" markerUnits="userSpaceOnUse" stroke-dasharray="0,0"><path id="SvgjsPath1543" d="M0,0 L10,8 L0,16" fill="none" stroke="#323232" stroke-width="2"></path></marker><marker id="SvgjsMarker1546" markerWidth="16" markerHeight="16" refX="11" refY="8" viewBox="0 0 16 16" orient="auto" markerUnits="userSpaceOnUse" stroke-dasharray="0,0"><path id="SvgjsPath1547" d="M0,0 L10,8 L0,16" fill="none" stroke="#323232" stroke-width="2"></path></marker><marker id="SvgjsMarker1550" markerWidth="16" markerHeight="12" refX="16" refY="6" viewBox="0 0 16 12" orient="auto" markerUnits="userSpaceOnUse" stroke-dasharray="0,0"><path id="SvgjsPath1551" d="M0,2 L14,6 L0,11 L0,2" fill="#323232" stroke="#323232" stroke-width="2"></path></marker><marker id="SvgjsMarker1554" markerWidth="16" markerHeight="12" refX="16" refY="6" viewBox="0 0 16 12" orient="auto" markerUnits="userSpaceOnUse" stroke-dasharray="0,0"><path id="SvgjsPath1555" d="M0,2 L14,6 L0,11 L0,2" fill="#323232" stroke="#323232" stroke-width="2"></path></marker><marker id="SvgjsMarker1558" markerWidth="16" markerHeight="12" refX="16" refY="6" viewBox="0 0 16 12" orient="auto" markerUnits="userSpaceOnUse" stroke-dasharray="0,0"><path id="SvgjsPath1559" d="M0,2 L14,6 L0,11 L0,2" fill="#323232" stroke="#323232" stroke-width="2"></path></marker><marker id="SvgjsMarker1562" markerWidth="16" markerHeight="16" refX="11" refY="8" viewBox="0 0 16 16" orient="auto" markerUnits="userSpaceOnUse" stroke-dasharray="0,0"><path id="SvgjsPath1563" d="M0,0 L10,8 L0,16" fill="none" stroke="#323232" stroke-width="2"></path></marker><marker id="SvgjsMarker1566" markerWidth="20" markerHeight="12" refX="0" refY="6" viewBox="0 0 20 12" orient="auto" markerUnits="userSpaceOnUse" stroke-dasharray="0,0"><path id="SvgjsPath1567" d="M2,6 L10,2 L18,6 L10,10L2,6" fill="#ffffff" stroke="#323232" stroke-width="2"></path></marker><marker id="SvgjsMarker1568" markerWidth="16" markerHeight="16" refX="11" refY="8" viewBox="0 0 16 16" orient="auto" markerUnits="userSpaceOnUse" stroke-dasharray="0,0"><path id="SvgjsPath1569" d="M0,0 L10,8 L0,16" fill="none" stroke="#323232" stroke-width="2"></path></marker><marker id="SvgjsMarker1572" markerWidth="16" markerHeight="16" refX="11" refY="8" viewBox="0 0 16 16" orient="auto" markerUnits="userSpaceOnUse" stroke-dasharray="0,0"><path id="SvgjsPath1573" d="M0,0 L10,8 L0,16" fill="none" stroke="#323232" stroke-width="2"></path></marker><marker id="SvgjsMarker1576" markerWidth="16" markerHeight="16" refX="11" refY="8" viewBox="0 0 16 16" orient="auto" markerUnits="userSpaceOnUse" stroke-dasharray="0,0"><path id="SvgjsPath1577" d="M0,0 L10,8 L0,16" fill="none" stroke="#323232" stroke-width="2"></path></marker></defs><g id="SvgjsG1290" transform="translate(25,25)"><path id="SvgjsPath1291" d="M 0 25L 522 25Q 526 25 526 29L 526 325Q 526 329 522 329L 4 329Q 0 329 0 325Z" stroke="rgba(50,50,50,1)" stroke-width="2" fill-opacity="1" fill="#ffffff"></path><path id="SvgjsPath1292" d="M 0 4Q 0 0 4 0L 364.2 0Q 368.2 0 371.2 3L 399.76 25L 0 25Z" stroke="rgba(50,50,50,1)" stroke-width="2" fill-opacity="1" fill="#ffffff"></path><path id="SvgjsPath1293" d="M 0 0L 368.2 0L 399.76 25L 526 25L 526 329L 0 329Z" stroke="none" fill="none"></path><g id="SvgjsG1294"><text id="SvgjsText1295" font-family="微软雅黑" text-anchor="start" font-size="13px" width="359px" fill="#323232" font-weight="700" align="middle" lineHeight="125%" anchor="start" family="微软雅黑" size="13px" weight="700" font-style="" opacity="1" y="2.875" transform="rotate(0)"><tspan id="SvgjsTspan1296" dy="16" x="10"><tspan id="SvgjsTspan1297" style="text-decoration:;">Server</tspan></tspan></text></g><g id="SvgjsG1298"><text id="SvgjsText1299" font-family="微软雅黑" text-anchor="start" font-size="13px" width="506px" fill="#323232" font-weight="400" align="middle" lineHeight="125%" anchor="start" family="微软雅黑" size="13px" weight="400" font-style="" opacity="1" y="167.375" transform="rotate(0)"><tspan id="SvgjsTspan1300" dy="16" x="10"><tspan id="SvgjsTspan1301" style="text-decoration:;"> </tspan></tspan></text></g></g><g id="SvgjsG1302" transform="translate(584,400)"><path id="SvgjsPath1303" d="M 0 25L 603 25Q 607 25 607 29L 607 147Q 607 151 603 151L 4 151Q 0 151 0 147Z" stroke="rgba(50,50,50,1)" stroke-width="2" fill-opacity="1" fill="#ffffff"></path><path id="SvgjsPath1304" d="M 0 4Q 0 0 4 0L 420.9 0Q 424.9 0 427.9 3L 461.32 25L 0 25Z" stroke="rgba(50,50,50,1)" stroke-width="2" fill-opacity="1" fill="#ffffff"></path><path id="SvgjsPath1305" d="M 0 0L 424.9 0L 461.32 25L 607 25L 607 151L 0 151Z" stroke="none" fill="none"></path><g id="SvgjsG1306"><text id="SvgjsText1307" font-family="微软雅黑" text-anchor="start" font-size="13px" width="415px" fill="#323232" font-weight="700" align="middle" lineHeight="125%" anchor="start" family="微软雅黑" size="13px" weight="700" font-style="" opacity="1" y="2.875" transform="rotate(0)"><tspan id="SvgjsTspan1308" dy="16" x="10"><tspan id="SvgjsTspan1309" style="text-decoration:;">Algorithm Call</tspan></tspan></text></g><g id="SvgjsG1310"><text id="SvgjsText1311" font-family="微软雅黑" text-anchor="start" font-size="13px" width="587px" fill="#323232" font-weight="400" align="middle" lineHeight="125%" anchor="start" family="微软雅黑" size="13px" weight="400" font-style="" opacity="1" y="78.375" transform="rotate(0)"><tspan id="SvgjsTspan1312" dy="16" x="10"><tspan id="SvgjsTspan1313" style="text-decoration:;"> </tspan></tspan></text></g></g><g id="SvgjsG1314" transform="translate(604,74)"><path id="SvgjsPath1315" d="M 0 25L 502 25Q 506 25 506 29L 506 242Q 506 246 502 246L 4 246Q 0 246 0 242Z" stroke="rgba(50,50,50,1)" stroke-width="2" fill-opacity="1" fill="#ffffff"></path><path id="SvgjsPath1316" d="M 0 4Q 0 0 4 0L 350.2 0Q 354.2 0 357.2 3L 384.56 25L 0 25Z" stroke="rgba(50,50,50,1)" stroke-width="2" fill-opacity="1" fill="#ffffff"></path><path id="SvgjsPath1317" d="M 0 0L 354.2 0L 384.56 25L 506 25L 506 246L 0 246Z" stroke="none" fill="none"></path><g id="SvgjsG1318"><text id="SvgjsText1319" font-family="微软雅黑" text-anchor="start" font-size="13px" width="345px" fill="#323232" font-weight="700" align="middle" lineHeight="125%" anchor="start" family="微软雅黑" size="13px" weight="700" font-style="" opacity="1" y="2.875" transform="rotate(0)"><tspan id="SvgjsTspan1320" dy="16" x="10"><tspan id="SvgjsTspan1321" style="text-decoration:;">Algorithm</tspan></tspan></text></g><g id="SvgjsG1322"><text id="SvgjsText1323" font-family="微软雅黑" text-anchor="start" font-size="13px" width="486px" fill="#323232" font-weight="400" align="middle" lineHeight="125%" anchor="start" family="微软雅黑" size="13px" weight="400" font-style="" opacity="1" y="125.875" transform="rotate(0)"><tspan id="SvgjsTspan1324" dy="16" x="10"><tspan id="SvgjsTspan1325" style="text-decoration:;"> </tspan></tspan></text></g></g><g id="SvgjsG1326" transform="translate(31.5,54.5)"><path id="SvgjsPath1327" d="M 0 4Q 0 0 4 0L 321 0Q 325 0 325 4L 325 281Q 325 285 321 285L 4 285Q 0 285 0 281Z" stroke="rgba(50,50,50,1)" stroke-width="2" fill-opacity="1" fill="#ffffff"></path><path id="SvgjsPath1328" d="M 0 30L 325 30M 0 206L 325 206" stroke="rgba(50,50,50,1)" stroke-width="2" fill="none"></path><path id="SvgjsPath1329" d="M 0 0L 325 0L 325 285L 0 285Z" stroke="none" fill="none"></path><g id="SvgjsG1330"><text id="SvgjsText1331" font-family="微软雅黑" text-anchor="middle" font-size="13px" width="305px" fill="#323232" font-weight="700" align="middle" lineHeight="125%" anchor="middle" family="微软雅黑" size="13px" weight="700" font-style="" opacity="1" y="5.375" transform="rotate(0)"><tspan id="SvgjsTspan1332" dy="16" x="162.5"><tspan id="SvgjsTspan1333" style="text-decoration:;">Server</tspan></tspan></text></g><g id="SvgjsG1334"><text id="SvgjsText1335" font-family="微软雅黑" text-anchor="start" font-size="13px" width="305px" fill="#323232" font-weight="400" align="middle" lineHeight="125%" anchor="start" family="微软雅黑" size="13px" weight="400" font-style="" opacity="1" y="28.375" transform="rotate(0)"><tspan id="SvgjsTspan1336" dy="16" x="10"><tspan id="SvgjsTspan1337" style="text-decoration:;">- app:Flask- config:dict</tspan></tspan><tspan id="SvgjsTspan1338" dy="16" x="10"><tspan id="SvgjsTspan1339" style="text-decoration:;">- detect_model:torch.nn.model</tspan></tspan><tspan id="SvgjsTspan1340" dy="16" x="10"><tspan id="SvgjsTspan1341" style="text-decoration:;">- pre_model:torch.nn.model</tspan></tspan><tspan id="SvgjsTspan1342" dy="16" x="10"><tspan id="SvgjsTspan1343" style="text-decoration:;">- model_0:torch.nn.model</tspan></tspan><tspan id="SvgjsTspan1344" dy="16" x="10"><tspan id="SvgjsTspan1345" style="text-decoration:;">- model_1:torch.nn.model</tspan></tspan><tspan id="SvgjsTspan1346" dy="16" x="10"><tspan id="SvgjsTspan1347" style="text-decoration:;">- model_2:torch.nn.model</tspan></tspan><tspan id="SvgjsTspan1348" dy="16" x="10"><tspan id="SvgjsTspan1349" style="text-decoration:;">- name_list0:dict</tspan></tspan><tspan id="SvgjsTspan1350" dy="16" x="10"><tspan id="SvgjsTspan1351" style="text-decoration:;">- name_list1:dict</tspan></tspan><tspan id="SvgjsTspan1352" dy="16" x="10"><tspan id="SvgjsTspan1353" style="text-decoration:;">- name_list2:dict</tspan></tspan><tspan id="SvgjsTspan1354" dy="16" x="10"><tspan id="SvgjsTspan1355" style="text-decoration:;">- sql_helper:SQL_Helper</tspan></tspan></text></g><g id="SvgjsG1356"><text id="SvgjsText1357" font-family="微软雅黑" text-anchor="start" font-size="13px" width="305px" fill="#323232" font-weight="400" align="middle" lineHeight="125%" anchor="start" family="微软雅黑" size="13px" weight="400" font-style="" opacity="1" y="204.375" transform="rotate(0)"><tspan id="SvgjsTspan1358" dy="16" x="10"><tspan id="SvgjsTspan1359" style="text-decoration:;">__init__():void</tspan></tspan><tspan id="SvgjsTspan1360" dy="16" x="10"><tspan id="SvgjsTspan1361" style="text-decoration:;">- get_detect():json</tspan></tspan><tspan id="SvgjsTspan1362" dy="16" x="10"><tspan id="SvgjsTspan1363" style="text-decoration:;">- get_class():json- </tspan></tspan><tspan id="SvgjsTspan1364" dy="16" x="10"><tspan id="SvgjsTspan1365" style="text-decoration:;">keep_sql_interactive(threadName,delay ):void</tspan></tspan><tspan id="SvgjsTspan1366" dy="16" x="10"><tspan id="SvgjsTspan1367" style="text-decoration:;">- main():void</tspan></tspan></text></g></g><g id="SvgjsG1368" transform="translate(601,440.53496503496507)"><path id="SvgjsPath1369" d="M 0 4Q 0 0 4 0L 328 0Q 332 0 332 4L 332 94.93006993006992Q 332 98.93006993006992 328 98.93006993006992L 4 98.93006993006992Q 0 98.93006993006992 0 94.93006993006992Z" stroke="rgba(50,50,50,1)" stroke-width="2" fill-opacity="1" fill="#ffffff"></path><path id="SvgjsPath1370" d="M 0 30L 332 30M 0 62L 332 62" stroke="rgba(50,50,50,1)" stroke-width="2" fill="none"></path><path id="SvgjsPath1371" d="M 0 0L 332 0L 332 98.93006993006992L 0 98.93006993006992Z" stroke="none" fill="none"></path><g id="SvgjsG1372"><text id="SvgjsText1373" font-family="微软雅黑" text-anchor="middle" font-size="13px" width="312px" fill="#323232" font-weight="700" align="middle" lineHeight="125%" anchor="middle" family="微软雅黑" size="13px" weight="700" font-style="" opacity="1" y="5.375" transform="rotate(0)"><tspan id="SvgjsTspan1374" dy="16" x="166"><tspan id="SvgjsTspan1375" style="text-decoration:;">Predict</tspan></tspan></text></g><g id="SvgjsG1376"><text id="SvgjsText1377" font-family="微软雅黑" text-anchor="start" font-size="13px" width="312px" fill="#323232" font-weight="400" align="middle" lineHeight="125%" anchor="start" family="微软雅黑" size="13px" weight="400" font-style="" opacity="1" y="28.375" transform="rotate(0)"><tspan id="SvgjsTspan1378" dy="16" x="10"><tspan id="SvgjsTspan1379" style="text-decoration:;">- transform_pre:torchvision.transforms.Compose</tspan></tspan><tspan id="SvgjsTspan1380" dy="16" x="10"><tspan id="SvgjsTspan1381" style="text-decoration:;">- device:torch.device</tspan></tspan></text></g><g id="SvgjsG1382"><text id="SvgjsText1383" font-family="微软雅黑" text-anchor="start" font-size="13px" width="312px" fill="#323232" font-weight="400" align="middle" lineHeight="125%" anchor="start" family="微软雅黑" size="13px" weight="400" font-style="" opacity="1" y="60.375" transform="rotate(0)"><tspan id="SvgjsTspan1384" dy="16" x="10"><tspan id="SvgjsTspan1385" style="text-decoration:;">- pre_process(int):torch.nn.model</tspan></tspan><tspan id="SvgjsTspan1386" dy="16" x="10"><tspan id="SvgjsTspan1387" style="text-decoration:;">- predict(ndarray, model, dict):</tspan></tspan></text></g></g><g id="SvgjsG1388" transform="translate(607,205)"><path id="SvgjsPath1389" d="M 0 4Q 0 0 4 0L 136 0Q 140 0 140 4L 140 58Q 140 62 136 62L 4 62Q 0 62 0 58Z" stroke="rgba(50,50,50,1)" stroke-width="2" fill-opacity="1" fill="#ffffff"></path><path id="SvgjsPath1390" d="M 0 30L 140 30" stroke="rgba(50,50,50,1)" stroke-width="2" fill="none"></path><path id="SvgjsPath1391" d="M 0 0L 140 0L 140 62L 0 62Z" stroke="none" fill="none"></path><g id="SvgjsG1392"><text id="SvgjsText1393" font-family="微软雅黑" text-anchor="middle" font-size="13px" width="120px" fill="#323232" font-weight="700" align="middle" lineHeight="125%" anchor="middle" family="微软雅黑" size="13px" weight="700" font-style="" opacity="1" y="5.375" transform="rotate(0)"><tspan id="SvgjsTspan1394" dy="16" x="70"><tspan id="SvgjsTspan1395" style="text-decoration:;">Prenet</tspan></tspan></text></g><g id="SvgjsG1396"><text id="SvgjsText1397" font-family="微软雅黑" text-anchor="start" font-size="13px" width="120px" fill="#323232" font-weight="400" align="middle" lineHeight="125%" anchor="start" family="微软雅黑" size="13px" weight="400" font-style="" opacity="1" y="28.375" transform="rotate(0)"><tspan id="SvgjsTspan1398" dy="16" x="10"><tspan id="SvgjsTspan1399" style="text-decoration:;">- train()</tspan></tspan><tspan id="SvgjsTspan1400" dy="16" x="10"><tspan id="SvgjsTspan1401" style="text-decoration:;">- val()</tspan></tspan></text></g></g><g id="SvgjsG1402" transform="translate(873,104)"><path id="SvgjsPath1403" d="M 0 4Q 0 0 4 0L 226 0Q 230 0 230 4L 230 58Q 230 62 226 62L 4 62Q 0 62 0 58Z" stroke="rgba(50,50,50,1)" stroke-width="2" fill-opacity="1" fill="#ffffff"></path><path id="SvgjsPath1404" d="M 0 30L 230 30" stroke="rgba(50,50,50,1)" stroke-width="2" fill="none"></path><path id="SvgjsPath1405" d="M 0 0L 230 0L 230 62L 0 62Z" stroke="none" fill="none"></path><g id="SvgjsG1406"><text id="SvgjsText1407" font-family="微软雅黑" text-anchor="middle" font-size="13px" width="210px" fill="#323232" font-weight="700" align="middle" lineHeight="125%" anchor="middle" family="微软雅黑" size="13px" weight="700" font-style="" opacity="1" y="5.375" transform="rotate(0)"><tspan id="SvgjsTspan1408" dy="16" x="115"><tspan id="SvgjsTspan1409" style="text-decoration:;">torch.nn.model</tspan></tspan></text></g><g id="SvgjsG1410"><text id="SvgjsText1411" font-family="微软雅黑" text-anchor="start" font-size="13px" width="210px" fill="#323232" font-weight="400" align="middle" lineHeight="125%" anchor="start" family="微软雅黑" size="13px" weight="400" font-style="" opacity="1" y="28.375" transform="rotate(0)"><tspan id="SvgjsTspan1412" dy="16" x="10"><tspan id="SvgjsTspan1413" style="text-decoration:;">- load(dict)</tspan></tspan><tspan id="SvgjsTspan1414" dy="16" x="10"><tspan id="SvgjsTspan1415" style="text-decoration:;">- forward(tensor)</tspan></tspan></text></g></g><g id="SvgjsG1416" transform="translate(764,205)"><path id="SvgjsPath1417" d="M 0 4Q 0 0 4 0L 136 0Q 140 0 140 4L 140 58Q 140 62 136 62L 4 62Q 0 62 0 58Z" stroke="rgba(50,50,50,1)" stroke-width="2" fill-opacity="1" fill="#ffffff"></path><path id="SvgjsPath1418" d="M 0 30L 140 30" stroke="rgba(50,50,50,1)" stroke-width="2" fill="none"></path><path id="SvgjsPath1419" d="M 0 0L 140 0L 140 62L 0 62Z" stroke="none" fill="none"></path><g id="SvgjsG1420"><text id="SvgjsText1421" font-family="微软雅黑" text-anchor="middle" font-size="13px" width="120px" fill="#323232" font-weight="700" align="middle" lineHeight="125%" anchor="middle" family="微软雅黑" size="13px" weight="700" font-style="" opacity="1" y="5.375" transform="rotate(0)"><tspan id="SvgjsTspan1422" dy="16" x="70"><tspan id="SvgjsTspan1423" style="text-decoration:;">BigTransfer</tspan></tspan></text></g><g id="SvgjsG1424"><text id="SvgjsText1425" font-family="微软雅黑" text-anchor="start" font-size="13px" width="120px" fill="#323232" font-weight="400" align="middle" lineHeight="125%" anchor="start" family="微软雅黑" size="13px" weight="400" font-style="" opacity="1" y="28.375" transform="rotate(0)"><tspan id="SvgjsTspan1426" dy="16" x="10"><tspan id="SvgjsTspan1427" style="text-decoration:;">- train()</tspan></tspan><tspan id="SvgjsTspan1428" dy="16" x="10"><tspan id="SvgjsTspan1429" style="text-decoration:;">- val()</tspan></tspan></text></g></g><g id="SvgjsG1430" transform="translate(918,205)"><path id="SvgjsPath1431" d="M 0 4Q 0 0 4 0L 136 0Q 140 0 140 4L 140 58Q 140 62 136 62L 4 62Q 0 62 0 58Z" stroke="rgba(50,50,50,1)" stroke-width="2" fill-opacity="1" fill="#ffffff"></path><path id="SvgjsPath1432" d="M 0 30L 140 30" stroke="rgba(50,50,50,1)" stroke-width="2" fill="none"></path><path id="SvgjsPath1433" d="M 0 0L 140 0L 140 62L 0 62Z" stroke="none" fill="none"></path><g id="SvgjsG1434"><text id="SvgjsText1435" font-family="微软雅黑" text-anchor="middle" font-size="13px" width="120px" fill="#323232" font-weight="700" align="middle" lineHeight="125%" anchor="middle" family="微软雅黑" size="13px" weight="700" font-style="" opacity="1" y="5.375" transform="rotate(0)"><tspan id="SvgjsTspan1436" dy="16" x="70"><tspan id="SvgjsTspan1437" style="text-decoration:;">yolo</tspan></tspan></text></g><g id="SvgjsG1438"><text id="SvgjsText1439" font-family="微软雅黑" text-anchor="start" font-size="13px" width="120px" fill="#323232" font-weight="400" align="middle" lineHeight="125%" anchor="start" family="微软雅黑" size="13px" weight="400" font-style="" opacity="1" y="28.375" transform="rotate(0)"><tspan id="SvgjsTspan1440" dy="16" x="10"><tspan id="SvgjsTspan1441" style="text-decoration:;">- train()</tspan></tspan><tspan id="SvgjsTspan1442" dy="16" x="10"><tspan id="SvgjsTspan1443" style="text-decoration:;">- val()</tspan></tspan></text></g></g><g id="SvgjsG1444"><path id="SvgjsPath1445" d="M988 205L988 185L988 185L988 166" stroke="#323232" stroke-width="2" fill="none" marker-end="url(#SvgjsMarker1446)"></path></g><g id="SvgjsG1448" transform="translate(665.5,104)"><path id="SvgjsPath1449" d="M 0 4Q 0 0 4 0L 136 0Q 140 0 140 4L 140 58Q 140 62 136 62L 4 62Q 0 62 0 58Z" stroke="rgba(50,50,50,1)" stroke-width="2" fill-opacity="1" fill="#ffffff"></path><path id="SvgjsPath1450" d="M 0 30L 140 30" stroke="rgba(50,50,50,1)" stroke-width="2" fill="none"></path><path id="SvgjsPath1451" d="M 0 0L 140 0L 140 62L 0 62Z" stroke="none" fill="none"></path><g id="SvgjsG1452"><text id="SvgjsText1453" font-family="微软雅黑" text-anchor="middle" font-size="13px" width="120px" fill="#323232" font-weight="700" align="middle" lineHeight="125%" anchor="middle" family="微软雅黑" size="13px" weight="700" font-style="" opacity="1" y="5.375" transform="rotate(0)"><tspan id="SvgjsTspan1454" dy="16" x="70"><tspan id="SvgjsTspan1455" style="text-decoration:;">Resnet</tspan></tspan></text></g><g id="SvgjsG1456"><text id="SvgjsText1457" font-family="微软雅黑" text-anchor="start" font-size="13px" width="120px" fill="#323232" font-weight="400" align="middle" lineHeight="125%" anchor="start" family="微软雅黑" size="13px" weight="400" font-style="" opacity="1" y="28.375" transform="rotate(0)"><tspan id="SvgjsTspan1458" dy="16" x="10"><tspan id="SvgjsTspan1459" style="text-decoration:;">- train()</tspan></tspan><tspan id="SvgjsTspan1460" dy="16" x="10"><tspan id="SvgjsTspan1461" style="text-decoration:;">- val()</tspan></tspan></text></g></g><g id="SvgjsG1462" transform="translate(949,444)"><path id="SvgjsPath1463" d="M 0 4Q 0 0 4 0L 226 0Q 230 0 230 4L 230 88Q 230 92 226 92L 4 92Q 0 92 0 88Z" stroke="rgba(50,50,50,1)" stroke-width="2" fill-opacity="1" fill="#ffffff"></path><path id="SvgjsPath1464" d="M 0 30L 230 30M 0 60L 230 60" stroke="rgba(50,50,50,1)" stroke-width="2" fill="none"></path><path id="SvgjsPath1465" d="M 0 0L 230 0L 230 92L 0 92Z" stroke="none" fill="none"></path><g id="SvgjsG1466"><text id="SvgjsText1467" font-family="微软雅黑" text-anchor="middle" font-size="13px" width="210px" fill="#323232" font-weight="700" align="middle" lineHeight="125%" anchor="middle" family="微软雅黑" size="13px" weight="700" font-style="" opacity="1" y="5.375" transform="rotate(0)"><tspan id="SvgjsTspan1468" dy="16" x="115"><tspan id="SvgjsTspan1469" style="text-decoration:;">yolo_detect</tspan></tspan></text></g><g id="SvgjsG1470"><text id="SvgjsText1471" font-family="微软雅黑" text-anchor="start" font-size="13px" width="210px" fill="#323232" font-weight="400" align="middle" lineHeight="125%" anchor="start" family="微软雅黑" size="13px" weight="400" font-style="" opacity="1" y="35.375" transform="rotate(0)"><tspan id="SvgjsTspan1472" dy="16" x="10"><tspan id="SvgjsTspan1473" style="text-decoration:;">- opt:dict</tspan></tspan></text></g><g id="SvgjsG1474"><text id="SvgjsText1475" font-family="微软雅黑" text-anchor="start" font-size="13px" width="210px" fill="#323232" font-weight="400" align="middle" lineHeight="125%" anchor="start" family="微软雅黑" size="13px" weight="400" font-style="" opacity="1" y="65.375" transform="rotate(0)"><tspan id="SvgjsTspan1476" dy="16" x="10"><tspan id="SvgjsTspan1477" style="text-decoration:;">- run(dict:weight, str:source)</tspan></tspan></text></g></g><g id="SvgjsG1478" transform="translate(31.5,388.75)"><path id="SvgjsPath1479" d="M 0 4Q 0 0 4 0L 321 0Q 325 0 325 4L 325 161.5Q 325 165.5 321 165.5L 4 165.5Q 0 165.5 0 161.5Z" stroke="rgba(50,50,50,1)" stroke-width="2" fill-opacity="1" fill="#ffffff"></path><path id="SvgjsPath1480" d="M 0 30L 325 30M 0 60L 325 60" stroke="rgba(50,50,50,1)" stroke-width="2" fill="none"></path><path id="SvgjsPath1481" d="M 0 0L 325 0L 325 165.5L 0 165.5Z" stroke="none" fill="none"></path><g id="SvgjsG1482"><text id="SvgjsText1483" font-family="微软雅黑" text-anchor="middle" font-size="13px" width="305px" fill="#323232" font-weight="700" align="middle" lineHeight="125%" anchor="middle" family="微软雅黑" size="13px" weight="700" font-style="" opacity="1" y="5.375" transform="rotate(0)"><tspan id="SvgjsTspan1484" dy="16" x="162.5"><tspan id="SvgjsTspan1485" style="text-decoration:;">SQL_Helper</tspan></tspan></text></g><g id="SvgjsG1486"><text id="SvgjsText1487" font-family="微软雅黑" text-anchor="start" font-size="13px" width="305px" fill="#323232" font-weight="400" align="middle" lineHeight="125%" anchor="start" family="微软雅黑" size="13px" weight="400" font-style="" opacity="1" y="35.375" transform="rotate(0)"><tspan id="SvgjsTspan1488" dy="16" x="10"><tspan id="SvgjsTspan1489" style="text-decoration:;">- instance:SQL_Helper</tspan></tspan></text></g><g id="SvgjsG1490"><text id="SvgjsText1491" font-family="微软雅黑" text-anchor="start" font-size="13px" width="305px" fill="#323232" font-weight="400" align="middle" lineHeight="125%" anchor="start" family="微软雅黑" size="13px" weight="400" font-style="" opacity="1" y="58.375" transform="rotate(0)"><tspan id="SvgjsTspan1492" dy="16" x="10"><tspan id="SvgjsTspan1493" style="text-decoration:;">- __init__():void</tspan></tspan><tspan id="SvgjsTspan1494" dy="16" x="10"><tspan id="SvgjsTspan1495" style="text-decoration:;">- __new__(list, dict)- synchronized(function):void</tspan></tspan><tspan id="SvgjsTspan1496" dy="16" x="10"><tspan id="SvgjsTspan1497" style="text-decoration:;">- keep_interacitve():void</tspan></tspan><tspan id="SvgjsTspan1498" dy="16" x="10"><tspan id="SvgjsTspan1499" style="text-decoration:;">- get_name_by_code(str):str</tspan></tspan><tspan id="SvgjsTspan1500" dy="16" x="10"><tspan id="SvgjsTspan1501" style="text-decoration:;">- query(str):dict</tspan></tspan></text></g></g><g id="SvgjsG1502" transform="translate(367,136)"><path id="SvgjsPath1503" d="M 0 4Q 0 0 4 0L 168 0Q 172 0 172 4L 172 88Q 172 92 168 92L 4 92Q 0 92 0 88Z" stroke="rgba(50,50,50,1)" stroke-width="2" fill-opacity="1" fill="#ffffff"></path><path id="SvgjsPath1504" d="M 0 30L 172 30" stroke="rgba(50,50,50,1)" stroke-width="2" fill="none"></path><path id="SvgjsPath1505" d="M 0 0L 172 0L 172 92L 0 92Z" stroke="none" fill="none"></path><g id="SvgjsG1506"><text id="SvgjsText1507" font-family="微软雅黑" text-anchor="middle" font-size="13px" width="152px" fill="#323232" font-weight="700" align="middle" lineHeight="125%" anchor="middle" family="微软雅黑" size="13px" weight="700" font-style="" opacity="1" y="5.375" transform="rotate(0)"><tspan id="SvgjsTspan1508" dy="16" x="86"><tspan id="SvgjsTspan1509" style="text-decoration:;">Client</tspan></tspan></text></g><g id="SvgjsG1510"><text id="SvgjsText1511" font-family="微软雅黑" text-anchor="start" font-size="13px" width="152px" fill="#323232" font-weight="400" align="middle" lineHeight="125%" anchor="start" family="微软雅黑" size="13px" weight="400" font-style="" opacity="1" y="43.375" transform="rotate(0)"><tspan id="SvgjsTspan1512" dy="16" x="10"><tspan id="SvgjsTspan1513" style="text-decoration:;">- requests_test()</tspan></tspan><tspan id="SvgjsTspan1514" dy="16" x="10"><tspan id="SvgjsTspan1515" style="text-decoration:;">- connetc_test()</tspan></tspan></text></g></g><g id="SvgjsG1516" transform="translate(365,397.5)"><path id="SvgjsPath1517" d="M 0 25L 187 25Q 191 25 191 29L 191 147Q 191 151 187 151L 4 151Q 0 151 0 147Z" stroke="rgba(50,50,50,1)" stroke-width="2" fill-opacity="1" fill="#ffffff"></path><path id="SvgjsPath1518" d="M 0 4Q 0 0 4 0L 129.7 0Q 133.7 0 136.7 3L 145.16 25L 0 25Z" stroke="rgba(50,50,50,1)" stroke-width="2" fill-opacity="1" fill="#ffffff"></path><path id="SvgjsPath1519" d="M 0 0L 133.7 0L 145.16 25L 191 25L 191 151L 0 151Z" stroke="none" fill="none"></path><g id="SvgjsG1520"><text id="SvgjsText1521" font-family="微软雅黑" text-anchor="start" font-size="13px" width="124px" fill="#323232" font-weight="700" align="middle" lineHeight="125%" anchor="start" family="微软雅黑" size="13px" weight="700" font-style="" opacity="1" y="2.875" transform="rotate(0)"><tspan id="SvgjsTspan1522" dy="16" x="10"><tspan id="SvgjsTspan1523" style="text-decoration:;">conf</tspan></tspan></text></g><g id="SvgjsG1524"><text id="SvgjsText1525" font-family="微软雅黑" text-anchor="start" font-size="13px" width="171px" fill="#323232" font-weight="400" align="middle" lineHeight="125%" anchor="start" family="微软雅黑" size="13px" weight="400" font-style="" opacity="1" y="78.375" transform="rotate(0)"><tspan id="SvgjsTspan1526" dy="16" x="10"><tspan id="SvgjsTspan1527" style="text-decoration:;"> </tspan></tspan></text></g></g><g id="SvgjsG1528" transform="translate(377.5,441.5)"><path id="SvgjsPath1529" d="M 0 4Q 0 0 4 0L 147 0Q 151 0 151 4L 151 58Q 151 62 147 62L 4 62Q 0 62 0 58Z" stroke="rgba(50,50,50,1)" stroke-width="2" fill-opacity="1" fill="#ffffff"></path><path id="SvgjsPath1530" d="M 0 30L 151 30" stroke="rgba(50,50,50,1)" stroke-width="2" fill="none"></path><path id="SvgjsPath1531" d="M 0 0L 151 0L 151 62L 0 62Z" stroke="none" fill="none"></path><g id="SvgjsG1532"><text id="SvgjsText1533" font-family="微软雅黑" text-anchor="middle" font-size="13px" width="131px" fill="#323232" font-weight="700" align="middle" lineHeight="125%" anchor="middle" family="微软雅黑" size="13px" weight="700" font-style="" opacity="1" y="5.375" transform="rotate(0)"><tspan id="SvgjsTspan1534" dy="16" x="75.5"><tspan id="SvgjsTspan1535" style="text-decoration:;">conf</tspan></tspan></text></g><g id="SvgjsG1536"><text id="SvgjsText1537" font-family="微软雅黑" text-anchor="start" font-size="13px" width="131px" fill="#323232" font-weight="400" align="middle" lineHeight="125%" anchor="start" family="微软雅黑" size="13px" weight="400" font-style="" opacity="1" y="36.375" transform="rotate(0)"><tspan id="SvgjsTspan1538" dy="16" x="10"><tspan id="SvgjsTspan1539" style="text-decoration:;">- config:dict</tspan></tspan></text></g></g><g id="SvgjsG1540"><path id="SvgjsPath1541" d="M767 440.53496503496507L767 353.24650349650346L677 353.24650349650346L677 267" stroke-dasharray="8,5" stroke="#323232" stroke-width="2" fill="none" marker-end="url(#SvgjsMarker1542)"></path></g><g id="SvgjsG1544"><path id="SvgjsPath1545" d="M767 440.53496503496507L767 353.24650349650346L834 353.24650349650346L834 267" stroke-dasharray="8,5" stroke="#323232" stroke-width="2" fill="none" marker-end="url(#SvgjsMarker1546)"></path></g><g id="SvgjsG1548"><path id="SvgjsPath1549" d="M805.5 135L839.25 135L839.25 135L873 135" stroke="#323232" stroke-width="2" fill="none" marker-end="url(#SvgjsMarker1550)"></path></g><g id="SvgjsG1552"><path id="SvgjsPath1553" d="M677 205L677 185L735.5 185L735.5 166" stroke="#323232" stroke-width="2" fill="none" marker-end="url(#SvgjsMarker1554)"></path></g><g id="SvgjsG1556"><path id="SvgjsPath1557" d="M834 205L834 185L735.5 185L735.5 166" stroke="#323232" stroke-width="2" fill="none" marker-end="url(#SvgjsMarker1558)"></path></g><g id="SvgjsG1560"><path id="SvgjsPath1561" d="M1064 444L1064 355.3513986013986L988 355.3513986013986L988 267" stroke-dasharray="8,5" stroke="#323232" stroke-width="2" fill="none" marker-end="url(#SvgjsMarker1562)"></path></g><g id="SvgjsG1564"><path id="SvgjsPath1565" d="M194 339.5L194 365.875L194 365.875L194 388.75" stroke="#323232" stroke-width="2" fill="none" marker-start="url(#SvgjsMarker1566)" marker-end="url(#SvgjsMarker1568)"></path></g><g id="SvgjsG1570"><path id="SvgjsPath1571" d="M550 262L567 262L567 475.5L584 475.5" stroke-dasharray="8,5" stroke="#323232" stroke-width="2" fill="none" marker-end="url(#SvgjsMarker1572)"></path></g><g id="SvgjsG1574"><path id="SvgjsPath1575" d="M551 189.5L576 189.5L576 189.5L601 189.5" stroke="#323232" stroke-width="2" fill="none" marker-end="url(#SvgjsMarker1576)"></path></g></svg>